<svg id="svg" version="1.1" xmlns="http://www.w3.org/2000/svg" xmlns:xlink="http://www.w3.org/1999/xlink" width="400" height="400" viewBox="0, 0, 400,400"><g id="svgg"><path id="path0" d="M363.995 131.093 C 358.361 134.546,322.603 156.093,320.934 157.042 C 320.017 157.562,317.531 159.071,315.409 160.394 C 313.288 161.717,311.445 162.800,311.314 162.800 C 311.183 162.800,310.486 163.250,309.764 163.800 C 309.043 164.350,308.353 164.800,308.231 164.800 C 308.108 164.800,305.833 166.150,303.174 167.800 C 300.515 169.450,298.268 170.800,298.180 170.800 C 298.093 170.800,296.120 171.975,293.796 173.412 C 291.472 174.848,286.022 178.154,281.685 180.757 C 277.348 183.361,265.070 190.765,254.400 197.211 C 243.730 203.658,233.290 209.959,231.200 211.213 C 229.110 212.468,220.470 217.680,212.000 222.796 C 203.530 227.911,195.850 232.522,194.934 233.043 C 194.017 233.563,191.531 235.071,189.409 236.394 C 187.288 237.717,185.445 238.800,185.314 238.800 C 185.183 238.800,184.486 239.250,183.764 239.800 C 183.043 240.350,182.353 240.800,182.231 240.800 C 182.108 240.800,179.833 242.150,177.174 243.800 C 174.515 245.450,172.265 246.800,172.174 246.800 C 172.083 246.800,169.801 248.152,167.104 249.804 C 164.407 251.457,161.930 252.970,161.600 253.168 C 159.174 254.621,143.974 263.791,135.400 268.974 C 123.367 276.250,124.859 275.943,117.800 272.592 C 115.160 271.339,111.920 269.812,110.600 269.198 C 109.280 268.585,105.345 266.714,101.855 265.042 C 98.365 263.369,95.446 262.000,95.367 262.000 C 95.289 262.000,91.864 260.380,87.756 258.400 C 83.648 256.420,80.217 254.800,80.132 254.800 C 80.046 254.800,77.957 253.829,75.488 252.641 C 66.551 248.343,59.088 244.800,58.970 244.800 C 58.904 244.800,56.629 243.738,53.915 242.439 C 51.200 241.141,47.004 239.150,44.589 238.016 C 37.644 234.752,32.455 232.302,29.621 230.947 C 26.090 229.259,26.142 229.521,30.643 236.095 C 32.792 239.233,36.038 243.997,37.857 246.682 C 39.676 249.367,43.547 255.037,46.458 259.282 C 49.370 263.527,53.890 270.150,56.504 274.000 C 59.118 277.850,63.053 283.610,65.250 286.800 C 67.447 289.990,70.595 294.580,72.245 297.000 C 75.270 301.434,80.127 308.522,84.443 314.800 C 88.959 321.369,95.583 331.045,98.545 335.400 C 100.192 337.820,103.525 342.680,105.953 346.200 C 108.380 349.720,111.533 354.310,112.957 356.400 C 120.919 368.080,122.721 370.600,123.112 370.600 C 123.349 370.600,126.841 367.371,130.872 363.425 C 138.430 356.025,142.564 351.939,204.400 290.761 C 224.530 270.846,247.930 247.727,256.400 239.388 C 264.870 231.048,280.620 215.482,291.400 204.796 C 302.180 194.111,318.109 178.356,326.798 169.784 C 358.029 138.974,367.374 129.641,367.184 129.451 C 367.078 129.344,365.643 130.083,363.995 131.093 " stroke="none" fill="#7cc43b" fill-rule="evenodd"></path><path id="path1" d="M29.408 0.298 C 28.312 0.382,27.280 0.665,27.114 0.926 C 26.881 1.291,26.811 1.291,26.806 0.925 C 26.803 0.664,26.440 0.477,26.000 0.510 C 25.106 0.577,24.933 1.039,25.700 1.309 C 25.975 1.406,25.247 1.397,24.083 1.290 C 22.343 1.130,21.856 1.229,21.353 1.847 C 21.016 2.261,20.855 2.375,20.994 2.100 C 21.300 1.495,19.771 1.399,19.400 2.000 C 19.264 2.220,18.713 2.400,18.176 2.400 C 17.639 2.400,17.200 2.580,17.200 2.800 C 17.200 3.020,16.823 3.200,16.363 3.200 C 15.885 3.200,15.442 3.517,15.332 3.939 C 15.195 4.464,14.870 4.626,14.209 4.500 C 13.512 4.366,13.208 4.545,12.996 5.214 C 12.782 5.888,12.632 5.975,12.381 5.569 C 12.035 5.009,11.684 5.270,8.477 8.477 C 5.270 11.684,5.009 12.035,5.569 12.381 C 5.975 12.632,5.888 12.782,5.214 12.996 C 4.545 13.208,4.366 13.512,4.500 14.209 C 4.626 14.870,4.464 15.195,3.939 15.332 C 3.517 15.442,3.200 15.885,3.200 16.363 C 3.200 16.823,3.020 17.200,2.800 17.200 C 2.580 17.200,2.400 17.639,2.400 18.176 C 2.400 18.713,2.220 19.264,2.000 19.400 C 1.399 19.771,1.495 21.300,2.100 20.994 C 2.375 20.855,2.285 20.999,1.900 21.314 C 1.438 21.693,1.200 22.452,1.200 23.544 C 1.200 24.455,1.020 25.200,0.800 25.200 C 0.580 25.200,0.400 25.560,0.400 26.000 C 0.400 26.440,0.625 26.803,0.900 26.806 C 1.287 26.811,1.283 26.887,0.883 27.140 C 0.599 27.321,0.380 28.083,0.396 28.834 C 0.413 29.585,0.341 31.006,0.236 31.991 C 0.121 33.085,0.222 33.890,0.498 34.060 C 0.830 34.266,0.826 34.487,0.480 34.903 C -0.314 35.861,0.003 372.435,0.800 373.415 C 1.144 373.839,1.187 374.026,0.900 373.853 C 0.041 373.337,0.349 374.427,1.300 375.266 C 1.795 375.703,1.975 375.947,1.700 375.807 C 0.943 375.422,1.087 376.808,1.900 377.736 C 2.568 378.499,2.567 378.524,1.884 378.274 C 1.310 378.065,1.240 378.143,1.531 378.663 C 1.732 379.021,1.805 379.657,1.696 380.078 C 1.523 380.737,1.647 380.803,2.608 380.562 C 3.404 380.362,3.638 380.415,3.432 380.748 C 3.274 381.004,2.977 381.109,2.772 380.983 C 2.568 380.856,2.400 381.213,2.400 381.776 C 2.400 382.848,2.969 383.157,3.363 382.300 C 3.489 382.025,3.497 382.190,3.380 382.666 C 2.992 384.247,3.587 385.650,4.546 385.416 C 5.016 385.301,5.175 385.311,4.900 385.437 C 4.306 385.710,4.226 386.800,4.800 386.800 C 5.020 386.800,5.200 387.062,5.200 387.382 C 5.200 387.702,5.650 388.414,6.200 388.964 C 6.750 389.514,7.200 390.145,7.200 390.366 C 7.200 391.041,8.937 392.433,9.507 392.214 C 9.801 392.102,9.953 392.153,9.844 392.328 C 9.567 392.776,11.794 394.800,12.564 394.800 C 12.914 394.800,13.200 394.991,13.200 395.224 C 13.200 395.457,13.381 395.535,13.603 395.398 C 13.824 395.261,14.118 395.441,14.254 395.798 C 14.391 396.154,14.750 396.351,15.052 396.236 C 15.353 396.120,15.600 396.220,15.600 396.459 C 15.600 396.698,15.948 396.802,16.374 396.691 C 16.822 396.574,17.238 396.723,17.362 397.044 C 17.480 397.353,18.125 397.600,18.811 397.600 C 19.533 397.600,19.944 397.766,19.800 398.000 C 19.664 398.220,19.833 398.400,20.176 398.400 C 20.519 398.400,20.800 398.186,20.800 397.924 C 20.800 397.661,21.025 397.752,21.300 398.124 C 21.621 398.558,22.302 398.782,23.200 398.749 C 25.867 398.651,26.723 398.802,25.800 399.209 C 24.612 399.733,17.313 399.710,202.239 399.757 C 352.454 399.795,373.965 399.727,374.583 399.214 C 374.981 398.884,375.881 398.679,376.645 398.745 C 377.458 398.815,378.000 398.680,378.000 398.407 C 378.000 398.157,378.180 398.064,378.400 398.200 C 378.620 398.336,378.803 398.212,378.806 397.924 C 378.811 397.544,378.917 397.565,379.194 398.000 C 379.509 398.495,379.717 398.512,380.382 398.100 C 380.826 397.825,381.552 397.600,381.995 397.600 C 382.438 397.600,382.800 397.420,382.800 397.200 C 382.800 396.980,383.160 396.800,383.600 396.800 C 384.040 396.800,384.400 396.626,384.400 396.413 C 384.400 396.199,384.670 396.129,385.000 396.255 C 385.330 396.382,385.600 396.286,385.600 396.043 C 385.600 395.799,385.870 395.600,386.200 395.600 C 386.530 395.600,386.800 395.420,386.800 395.200 C 386.800 394.980,387.166 394.800,387.613 394.800 C 388.059 394.800,388.529 394.530,388.655 394.200 C 388.782 393.870,389.117 393.600,389.400 393.600 C 389.683 393.600,390.018 393.330,390.145 393.000 C 390.271 392.670,390.573 392.400,390.816 392.400 C 391.376 392.400,392.167 391.606,392.510 390.700 C 392.656 390.315,392.961 390.000,393.187 390.000 C 393.414 390.000,393.600 389.809,393.600 389.576 C 393.600 389.343,393.420 389.264,393.200 389.400 C 392.980 389.536,392.800 389.542,392.800 389.414 C 392.800 389.285,393.250 389.009,393.800 388.800 C 394.412 388.567,394.800 388.106,394.800 387.610 C 394.800 387.164,394.980 386.800,395.200 386.800 C 395.420 386.800,395.600 386.446,395.600 386.013 C 395.600 385.437,395.411 385.290,394.900 385.466 C 394.331 385.662,394.350 385.587,395.000 385.067 C 395.440 384.714,396.025 384.420,396.300 384.413 C 396.575 384.406,396.800 384.040,396.800 383.600 C 396.800 383.160,396.980 382.800,397.200 382.800 C 397.420 382.800,397.600 382.365,397.600 381.833 C 397.600 381.302,397.777 380.807,397.994 380.733 C 398.211 380.660,398.476 379.263,398.584 377.630 C 398.701 375.844,398.983 374.534,399.290 374.345 C 400.092 373.849,399.975 25.200,399.173 25.200 C 399.024 25.200,398.800 24.345,398.675 23.300 C 398.336 20.464,398.228 20.118,397.379 19.150 C 396.951 18.662,396.825 18.394,397.100 18.555 C 397.405 18.733,397.600 18.620,397.600 18.266 C 397.600 17.947,397.319 17.578,396.975 17.446 C 396.631 17.314,396.461 17.024,396.598 16.803 C 396.735 16.581,396.522 16.397,396.124 16.394 C 395.718 16.390,395.576 16.259,395.800 16.094 C 396.466 15.605,396.455 14.507,395.782 14.248 C 395.434 14.115,395.261 13.824,395.398 13.603 C 395.535 13.381,395.457 13.200,395.224 13.200 C 394.991 13.200,394.800 12.861,394.800 12.446 C 394.800 12.031,394.350 11.397,393.800 11.037 C 393.250 10.676,392.800 10.159,392.800 9.887 C 392.800 8.991,390.746 7.121,389.982 7.321 C 389.470 7.454,389.326 7.338,389.486 6.920 C 389.654 6.484,389.464 6.366,388.756 6.465 C 388.046 6.565,387.814 6.420,387.856 5.900 C 387.886 5.515,387.661 5.200,387.356 5.200 C 387.050 5.200,386.800 5.020,386.800 4.800 C 386.800 4.580,386.609 4.400,386.376 4.400 C 386.143 4.400,386.054 4.564,386.178 4.765 C 386.302 4.966,386.098 5.085,385.724 5.030 C 385.349 4.975,384.975 4.676,384.891 4.365 C 384.772 3.923,384.832 3.931,385.163 4.400 C 385.530 4.918,385.589 4.904,385.594 4.300 C 385.597 3.915,385.435 3.600,385.233 3.600 C 385.031 3.600,384.581 3.491,384.233 3.357 C 383.879 3.221,383.600 3.320,383.600 3.581 C 383.600 3.837,383.808 3.919,384.062 3.762 C 384.367 3.573,384.414 3.654,384.201 3.999 C 383.947 4.409,383.768 4.371,383.366 3.821 C 383.048 3.387,382.653 3.241,382.327 3.437 C 381.908 3.689,381.898 3.632,382.280 3.160 C 382.673 2.674,382.608 2.556,381.916 2.504 C 381.452 2.469,380.960 2.259,380.824 2.038 C 380.687 1.817,380.221 1.638,379.788 1.640 C 379.354 1.642,378.460 1.514,377.800 1.357 C 376.663 1.086,376.631 1.111,377.200 1.836 C 377.742 2.526,377.738 2.552,377.163 2.103 C 376.813 1.830,376.379 1.740,376.199 1.903 C 376.019 2.067,376.020 1.944,376.201 1.632 C 376.446 1.211,376.362 1.129,375.876 1.315 C 375.485 1.466,375.078 1.311,374.866 0.932 C 374.622 0.496,374.423 0.438,374.232 0.749 C 374.078 0.997,373.773 1.200,373.553 1.200 C 373.333 1.200,373.280 0.994,373.436 0.742 C 373.725 0.274,372.682 0.378,371.000 0.986 C 370.343 1.224,370.307 1.194,370.800 0.820 C 371.297 0.443,371.228 0.375,370.400 0.426 C 369.850 0.461,369.310 0.452,369.200 0.407 C 368.341 0.058,307.288 0.226,307.483 0.578 C 307.612 0.810,307.475 0.775,307.179 0.500 C 306.429 -0.196,301.035 -0.196,301.453 0.500 C 301.689 0.892,301.626 0.897,301.164 0.523 C 300.313 -0.165,275.062 -0.167,275.448 0.521 C 275.638 0.858,275.558 0.852,275.179 0.500 C 274.429 -0.196,269.035 -0.196,269.453 0.500 C 269.689 0.892,269.626 0.897,269.164 0.523 C 268.313 -0.165,243.062 -0.167,243.448 0.521 C 243.638 0.858,243.558 0.852,243.179 0.500 C 242.429 -0.196,237.035 -0.196,237.453 0.500 C 237.689 0.892,237.626 0.897,237.164 0.523 C 236.313 -0.165,211.062 -0.167,211.448 0.521 C 211.638 0.858,211.558 0.852,211.179 0.500 C 210.429 -0.196,205.035 -0.196,205.453 0.500 C 205.689 0.892,205.626 0.897,205.164 0.523 C 204.313 -0.165,179.062 -0.167,179.448 0.521 C 179.638 0.858,179.558 0.852,179.179 0.500 C 178.429 -0.196,173.035 -0.196,173.453 0.500 C 173.689 0.892,173.626 0.897,173.164 0.523 C 172.313 -0.165,147.062 -0.167,147.448 0.521 C 147.638 0.858,147.558 0.852,147.179 0.500 C 146.429 -0.196,141.035 -0.196,141.453 0.500 C 141.689 0.892,141.626 0.897,141.164 0.523 C 140.313 -0.165,115.062 -0.167,115.448 0.521 C 115.638 0.858,115.558 0.852,115.179 0.500 C 114.857 0.201,113.537 0.000,111.896 0.000 C 109.808 0.000,109.225 0.119,109.453 0.500 C 109.689 0.892,109.626 0.897,109.164 0.523 C 108.313 -0.165,83.062 -0.167,83.448 0.521 C 83.638 0.858,83.558 0.852,83.179 0.500 C 82.429 -0.196,77.035 -0.196,77.453 0.500 C 77.690 0.894,77.627 0.898,77.155 0.516 C 76.365 -0.123,69.058 -0.153,69.452 0.484 C 69.601 0.726,69.553 0.818,69.345 0.689 C 68.525 0.183,32.463 0.017,32.259 0.519 C 32.111 0.881,32.055 0.877,32.032 0.500 C 32.014 0.225,31.865 0.032,31.700 0.072 C 31.535 0.112,30.503 0.213,29.408 0.298 M128.300 20.294 C 127.255 20.376,125.545 20.376,124.500 20.294 C 123.455 20.212,124.310 20.144,126.400 20.144 C 128.490 20.144,129.345 20.212,128.300 20.294 M119.705 21.082 C 119.214 21.177,118.314 21.179,117.705 21.087 C 117.097 20.995,117.500 20.917,118.600 20.914 C 119.700 20.911,120.197 20.987,119.705 21.082 M135.105 21.075 C 134.722 21.175,134.002 21.179,133.505 21.083 C 133.007 20.987,133.320 20.905,134.200 20.901 C 135.080 20.896,135.487 20.975,135.105 21.075 M135.043 22.229 C 179.339 31.265,205.050 102.211,178.693 142.680 C 168.578 158.211,159.199 163.605,142.316 163.599 C 113.208 163.589,86.711 134.260,80.340 95.000 C 79.641 90.692,79.625 73.224,80.317 69.200 C 84.383 45.545,96.182 29.335,113.671 23.377 C 115.988 22.588,118.293 22.128,123.400 21.435 C 125.409 21.163,132.030 21.614,135.043 22.229 M122.701 29.182 C 121.217 29.337,119.867 29.605,119.701 29.779 C 119.536 29.952,120.030 29.955,120.800 29.787 C 122.525 29.409,131.075 29.394,132.419 29.766 C 133.096 29.954,133.214 29.924,132.800 29.670 C 131.942 29.145,125.877 28.851,122.701 29.182 M116.800 30.418 C 116.362 30.715,116.524 30.752,117.400 30.556 C 118.871 30.227,119.190 29.998,118.167 30.006 C 117.745 30.009,117.130 30.195,116.800 30.418 M134.433 30.144 C 134.525 30.223,135.140 30.408,135.800 30.556 C 136.676 30.752,136.838 30.715,136.400 30.418 C 135.860 30.053,134.032 29.798,134.433 30.144 M114.100 31.212 C 112.715 31.769,113.034 32.014,114.500 31.520 C 115.215 31.279,115.875 31.018,115.967 30.941 C 116.292 30.666,114.986 30.856,114.100 31.212 M138.400 31.400 C 140.226 32.103,140.945 32.093,139.400 31.386 C 138.740 31.083,137.930 30.842,137.600 30.848 C 137.270 30.855,137.630 31.103,138.400 31.400 M140.833 32.135 C 140.925 32.209,142.620 33.109,144.600 34.136 C 146.580 35.162,147.840 35.717,147.400 35.369 C 146.531 34.680,141.394 32.000,140.943 32.000 C 140.791 32.000,140.742 32.061,140.833 32.135 M109.950 33.353 C 108.342 34.192,104.694 36.980,103.809 38.047 C 103.278 38.685,103.476 38.594,104.409 37.769 C 106.217 36.170,109.896 33.600,110.377 33.600 C 110.584 33.600,110.864 33.420,111.000 33.200 C 111.321 32.680,111.208 32.696,109.950 33.353 M148.400 36.128 C 148.400 36.214,149.525 37.070,150.900 38.030 C 153.339 39.733,160.482 46.570,163.228 49.829 C 163.983 50.724,164.426 51.174,164.213 50.829 C 161.831 46.955,148.400 34.469,148.400 36.128 M100.671 41.013 C 98.902 43.023,95.897 47.231,96.092 47.425 C 96.165 47.498,96.849 46.622,97.612 45.479 C 98.375 44.336,99.881 42.456,100.958 41.300 C 102.035 40.145,102.755 39.217,102.558 39.238 C 102.361 39.258,101.512 40.057,100.671 41.013 M95.104 48.900 C 94.212 50.265,92.727 53.261,92.872 53.404 C 92.942 53.474,93.666 52.286,94.481 50.765 C 95.949 48.022,96.234 47.171,95.104 48.900 M166.510 54.457 C 167.486 55.856,168.593 57.602,168.971 58.337 C 169.350 59.073,169.754 59.579,169.871 59.462 C 170.113 59.220,165.834 52.592,165.172 52.182 C 164.933 52.035,165.535 53.058,166.510 54.457 M91.244 57.244 C 90.998 57.951,90.866 58.600,90.952 58.685 C 91.038 58.771,91.309 58.262,91.556 57.556 C 91.802 56.849,91.934 56.200,91.848 56.115 C 91.762 56.029,91.491 56.538,91.244 57.244 M90.229 60.229 C 90.081 60.815,90.038 61.372,90.132 61.466 C 90.227 61.560,90.424 61.158,90.571 60.571 C 90.719 59.985,90.762 59.428,90.668 59.334 C 90.573 59.240,90.376 59.642,90.229 60.229 M170.820 61.639 C 171.280 62.540,171.754 63.180,171.874 63.060 C 172.089 62.844,170.496 60.000,170.159 60.000 C 170.063 60.000,170.360 60.737,170.820 61.639 M89.457 62.700 C 89.348 63.085,89.155 64.030,89.028 64.800 C 88.738 66.549,89.360 65.221,89.730 63.300 C 89.993 61.934,89.795 61.499,89.457 62.700 M172.018 63.900 C 172.042 64.304,173.959 67.867,173.982 67.551 C 174.010 67.164,172.385 63.600,172.181 63.600 C 172.082 63.600,172.008 63.735,172.018 63.900 M88.253 68.036 C 88.114 68.731,88.021 69.773,88.047 70.350 C 88.072 70.927,88.255 70.427,88.452 69.239 C 88.837 66.921,88.673 65.934,88.253 68.036 M174.839 70.100 C 175.715 72.323,176.302 73.258,175.802 71.635 C 175.325 70.087,174.406 68.000,174.200 68.000 C 174.097 68.000,174.384 68.945,174.839 70.100 M79.091 73.900 C 79.005 74.725,78.934 74.050,78.934 72.400 C 78.934 70.750,79.005 70.075,79.091 70.900 C 79.178 71.725,79.178 73.075,79.091 73.900 M136.600 70.384 C 135.297 70.553,136.413 70.644,139.800 70.648 C 143.522 70.652,144.431 70.570,143.000 70.362 C 140.675 70.023,139.360 70.027,136.600 70.384 M131.400 71.389 C 129.252 72.097,130.097 72.124,132.600 71.428 C 133.700 71.122,134.240 70.869,133.800 70.867 C 133.360 70.864,132.280 71.099,131.400 71.389 M147.000 71.402 C 149.245 72.056,150.097 72.145,149.200 71.633 C 148.870 71.444,147.790 71.184,146.800 71.055 L 145.000 70.820 147.000 71.402 M87.459 73.700 C 87.132 76.428,87.181 88.077,87.530 90.400 C 87.678 91.390,87.800 87.565,87.800 81.900 C 87.800 76.235,87.780 71.600,87.756 71.600 C 87.731 71.600,87.598 72.545,87.459 73.700 M125.500 73.627 C 124.675 74.063,124.000 74.508,124.000 74.618 C 124.000 74.796,127.159 73.319,127.567 72.951 C 128.027 72.534,126.825 72.928,125.500 73.627 M155.200 74.103 C 155.310 74.220,157.020 75.397,159.000 76.719 C 160.980 78.042,163.762 80.215,165.182 81.547 C 166.601 82.880,167.824 83.910,167.898 83.836 C 168.175 83.558,162.496 78.634,159.800 76.814 C 157.216 75.070,154.727 73.603,155.200 74.103 M120.248 77.213 C 113.141 82.931,107.389 93.283,106.255 102.400 L 106.031 104.200 106.435 102.600 C 106.658 101.720,107.111 99.920,107.442 98.600 C 109.647 89.822,114.318 82.387,121.000 77.022 C 123.939 74.662,123.784 74.800,123.490 74.800 C 123.357 74.800,121.898 75.886,120.248 77.213 M177.054 76.200 C 177.474 78.103,178.048 79.246,177.756 77.600 C 177.620 76.830,177.346 75.930,177.149 75.600 C 176.914 75.208,176.881 75.416,177.054 76.200 M178.016 79.233 C 178.110 80.191,179.950 86.795,179.957 86.200 C 179.970 85.124,178.653 79.720,178.289 79.356 C 178.130 79.197,178.007 79.142,178.016 79.233 M169.264 85.935 C 169.999 86.889,171.008 88.284,171.506 89.035 C 172.004 89.786,172.493 90.400,172.592 90.400 C 172.982 90.400,171.134 87.707,169.574 86.000 L 167.929 84.200 169.264 85.935 M189.083 87.695 C 188.987 88.193,188.905 87.880,188.901 87.000 C 188.896 86.120,188.975 85.713,189.075 86.095 C 189.175 86.478,189.179 87.198,189.083 87.695 M180.288 89.800 C 180.411 91.120,180.576 92.275,180.656 92.367 C 180.935 92.689,180.716 89.388,180.393 88.400 C 180.189 87.779,180.149 88.309,180.288 89.800 M79.091 93.100 C 79.005 93.925,78.934 93.250,78.934 91.600 C 78.934 89.950,79.005 89.275,79.091 90.100 C 79.178 90.925,79.178 92.275,79.091 93.100 M174.000 93.000 C 174.726 94.320,175.502 95.580,175.725 95.800 C 175.948 96.020,175.541 95.120,174.821 93.800 C 174.101 92.480,173.325 91.220,173.096 91.000 C 172.867 90.780,173.274 91.680,174.000 93.000 M189.891 95.500 C 189.805 96.325,189.734 95.650,189.734 94.000 C 189.734 92.350,189.805 91.675,189.891 92.500 C 189.978 93.325,189.978 94.675,189.891 95.500 M144.576 92.607 C 143.853 93.172,143.873 93.182,144.869 92.756 C 147.220 91.752,150.385 93.462,151.168 96.158 C 151.405 96.977,151.540 97.128,151.562 96.600 C 151.690 93.657,146.805 90.865,144.576 92.607 M88.040 94.233 C 88.062 95.095,88.233 96.250,88.421 96.800 C 88.642 97.448,88.680 96.955,88.531 95.400 C 88.263 92.620,87.982 91.951,88.040 94.233 M181.135 101.283 C 181.258 109.095,181.002 111.180,180.285 108.200 C 180.152 107.646,180.080 107.769,180.053 108.600 C 180.007 109.960,180.595 111.138,181.078 110.656 C 181.513 110.222,181.720 96.188,181.319 94.283 C 181.137 93.417,181.058 96.418,181.135 101.283 M142.713 93.900 C 141.183 95.655,140.756 97.989,141.649 99.726 C 142.352 101.096,144.087 102.800,144.775 102.799 C 145.119 102.798,144.825 102.446,144.119 102.016 C 141.528 100.436,140.874 97.254,142.614 94.693 C 143.687 93.115,143.735 92.729,142.713 93.900 M151.350 98.300 C 150.609 100.607,150.134 101.374,149.032 102.046 C 148.354 102.459,147.985 102.798,148.211 102.799 C 149.448 102.803,150.972 100.989,151.616 98.744 C 151.966 97.522,151.728 97.124,151.350 98.300 M89.068 100.000 C 89.200 100.990,89.455 102.070,89.636 102.400 C 90.040 103.136,89.614 100.129,89.155 99.000 C 88.960 98.520,88.925 98.921,89.068 100.000 M177.675 100.743 C 178.139 102.102,178.608 103.125,178.717 103.016 C 178.944 102.790,177.666 99.187,177.163 98.636 C 176.981 98.435,177.211 99.383,177.675 100.743 M190.697 105.284 C 190.618 106.668,190.553 105.640,190.553 103.000 C 190.552 100.360,190.616 99.228,190.695 100.484 C 190.774 101.741,190.775 103.901,190.697 105.284 M90.068 103.800 C 90.062 104.240,90.211 104.960,90.400 105.400 C 90.838 106.419,90.838 105.368,90.400 104.000 C 90.143 103.196,90.077 103.157,90.068 103.800 M179.048 104.600 C 179.191 105.260,179.466 106.070,179.659 106.400 C 179.884 106.784,179.918 106.568,179.752 105.800 C 179.609 105.140,179.334 104.330,179.141 104.000 C 178.916 103.616,178.882 103.832,179.048 104.600 M105.409 108.900 C 105.263 110.935,105.294 114.040,105.479 115.800 C 105.772 118.580,105.816 118.095,105.814 112.100 C 105.813 104.159,105.772 103.840,105.409 108.900 M91.072 107.400 C 91.379 108.931,93.647 115.286,93.824 115.109 C 93.939 114.994,91.533 107.694,91.020 106.600 C 90.916 106.380,90.940 106.740,91.072 107.400 M189.889 113.700 C 189.801 114.415,189.728 113.830,189.728 112.400 C 189.728 110.970,189.801 110.385,189.889 111.100 C 189.978 111.815,189.978 112.985,189.889 113.700 M385.269 114.662 C 385.671 115.026,386.000 115.504,386.000 115.723 C 386.000 115.943,385.682 115.756,385.294 115.309 C 384.906 114.861,384.231 114.404,383.794 114.294 C 383.038 114.102,383.036 114.091,383.769 114.046 C 384.191 114.021,384.866 114.298,385.269 114.662 M384.634 115.797 C 385.469 116.632,385.558 116.931,385.183 117.632 C 384.667 118.595,385.056 119.274,385.616 118.388 C 385.820 118.065,385.991 117.997,385.994 118.238 C 385.997 118.479,385.632 119.009,385.183 119.416 C 384.467 120.064,384.398 120.071,384.626 119.478 C 384.972 118.575,384.578 118.622,383.600 119.600 C 382.650 120.550,382.570 120.974,383.400 120.655 C 384.210 120.345,384.155 120.536,383.183 121.416 C 382.467 122.064,382.398 122.071,382.626 121.478 C 382.972 120.575,382.578 120.622,381.600 121.600 C 380.650 122.550,380.570 122.974,381.400 122.655 C 382.210 122.345,382.155 122.536,381.183 123.416 C 380.467 124.064,380.398 124.071,380.626 123.478 C 380.972 122.575,380.578 122.622,379.600 123.600 C 378.650 124.550,378.570 124.974,379.400 124.655 C 380.210 124.345,380.155 124.536,379.183 125.416 C 378.467 126.064,378.398 126.071,378.626 125.478 C 378.972 124.575,378.578 124.622,377.600 125.600 C 376.650 126.550,376.570 126.974,377.400 126.655 C 378.210 126.345,378.155 126.536,377.183 127.416 C 376.467 128.064,376.398 128.071,376.626 127.478 C 376.956 126.616,376.473 126.610,375.531 127.462 C 374.648 128.262,374.569 128.974,375.400 128.655 C 376.210 128.345,376.155 128.536,375.183 129.416 C 374.467 130.064,374.398 130.071,374.626 129.478 C 374.956 128.616,374.473 128.610,373.531 129.462 C 372.648 130.262,372.569 130.974,373.400 130.655 C 374.210 130.345,374.155 130.536,373.183 131.416 C 372.397 132.127,372.376 132.127,372.647 131.423 C 373.223 129.920,371.747 131.272,358.711 144.193 C 342.876 159.887,306.721 195.709,290.898 211.379 C 282.959 219.243,279.757 222.662,280.105 222.906 C 280.408 223.118,280.235 223.149,279.661 222.987 C 278.865 222.762,278.758 222.839,278.964 223.487 C 279.256 224.406,277.518 226.244,276.786 225.791 C 276.486 225.606,269.180 232.593,256.856 244.850 C 246.155 255.494,230.515 271.032,222.100 279.379 C 206.748 294.608,206.293 295.080,207.400 294.655 C 208.210 294.345,208.155 294.536,207.183 295.416 C 206.467 296.064,206.398 296.071,206.626 295.478 C 206.972 294.575,206.578 294.622,205.600 295.600 C 204.650 296.550,204.570 296.974,205.400 296.655 C 206.210 296.345,206.155 296.536,205.183 297.416 C 204.467 298.064,204.398 298.071,204.626 297.478 C 204.972 296.575,204.578 296.622,203.600 297.600 C 202.650 298.550,202.570 298.974,203.400 298.655 C 204.210 298.345,204.155 298.536,203.183 299.416 C 202.467 300.064,202.398 300.071,202.626 299.478 C 202.972 298.575,202.578 298.622,201.600 299.600 C 200.650 300.550,200.570 300.974,201.400 300.655 C 202.210 300.345,202.155 300.536,201.183 301.416 C 200.467 302.064,200.398 302.071,200.626 301.478 C 200.956 300.616,200.473 300.610,199.531 301.462 C 198.648 302.262,198.569 302.974,199.400 302.655 C 200.210 302.345,200.155 302.536,199.183 303.416 C 198.467 304.064,198.398 304.071,198.626 303.478 C 198.956 302.616,198.473 302.610,197.531 303.462 C 196.648 304.262,196.569 304.974,197.400 304.655 C 198.210 304.345,198.155 304.536,197.183 305.416 C 196.397 306.127,196.376 306.127,196.647 305.423 C 197.351 303.587,199.868 301.143,147.199 353.440 C 134.770 365.782,124.183 376.100,123.673 376.369 C 122.410 377.034,121.437 376.349,119.400 373.360 C 113.642 364.911,113.495 364.722,113.110 365.262 C 112.822 365.663,112.784 365.616,112.959 365.076 C 113.185 364.377,111.956 362.475,100.243 345.400 C 98.432 342.760,95.540 338.530,93.816 336.000 C 87.378 326.548,87.466 326.660,87.109 327.465 C 86.851 328.049,86.821 328.007,86.965 327.260 C 87.152 326.288,87.231 326.410,75.208 308.910 C 72.454 304.901,69.143 300.066,67.851 298.166 C 66.069 295.545,65.408 294.843,65.113 295.256 C 64.824 295.661,64.787 295.607,64.970 295.048 C 65.337 293.922,61.554 288.468,61.105 289.477 C 60.856 290.037,60.825 289.987,60.966 289.256 C 61.100 288.563,60.401 287.230,58.345 284.256 C 56.803 282.025,51.020 273.562,45.494 265.448 C 37.348 253.488,35.384 250.839,35.115 251.448 C 34.846 252.058,34.818 252.020,34.968 251.249 C 35.103 250.548,34.389 249.185,32.240 246.049 C 18.440 225.911,17.190 223.770,18.480 222.480 C 19.362 221.598,20.684 221.981,26.662 224.846 C 39.008 230.762,40.039 231.205,40.936 230.980 C 41.421 230.858,42.265 230.945,42.809 231.173 C 43.645 231.522,43.556 231.548,42.242 231.338 C 41.129 231.160,40.765 231.219,40.966 231.545 C 41.121 231.795,41.396 232.000,41.577 232.000 C 41.759 232.000,45.094 233.530,48.988 235.400 C 52.883 237.270,56.124 238.800,56.191 238.800 C 56.258 238.800,58.808 239.990,61.856 241.444 C 69.734 245.201,74.121 247.277,81.200 250.598 C 84.610 252.198,89.380 254.447,91.800 255.595 C 94.220 256.743,97.280 258.185,98.600 258.799 C 99.920 259.413,103.493 261.104,106.539 262.556 C 110.206 264.303,112.372 265.122,112.948 264.977 C 113.427 264.857,114.265 264.945,114.809 265.173 C 115.645 265.522,115.556 265.548,114.242 265.338 C 113.129 265.160,112.765 265.219,112.966 265.545 C 113.121 265.795,113.394 266.000,113.574 266.000 C 113.753 266.000,116.180 267.094,118.966 268.430 L 124.031 270.861 125.316 270.091 C 143.729 259.064,147.052 256.914,145.000 257.354 C 144.037 257.560,143.940 257.526,144.508 257.181 C 144.898 256.945,145.554 256.859,145.967 256.990 C 147.125 257.357,156.384 251.569,155.357 251.119 C 154.765 250.860,154.819 250.829,155.608 250.978 C 156.790 251.202,155.397 251.982,175.200 240.007 C 183.670 234.884,192.573 229.518,194.985 228.082 C 198.675 225.884,199.245 225.416,198.585 225.127 C 197.919 224.836,197.946 224.812,198.762 224.971 C 200.210 225.252,209.692 219.611,208.585 219.127 C 207.927 218.839,207.959 218.815,208.777 218.974 C 209.518 219.119,212.129 217.732,219.577 213.235 C 224.980 209.974,235.880 203.391,243.800 198.608 C 251.720 193.824,260.900 188.291,264.200 186.312 C 280.730 176.399,282.157 175.468,281.363 175.121 C 280.759 174.857,280.810 174.828,281.608 174.978 C 282.788 175.202,281.362 176.000,301.200 164.009 C 309.670 158.890,318.573 153.524,320.985 152.085 C 324.675 149.884,325.245 149.416,324.585 149.127 C 323.919 148.836,323.946 148.812,324.762 148.971 C 326.210 149.252,335.692 143.611,334.585 143.127 C 333.927 142.839,333.959 142.815,334.777 142.974 C 335.519 143.119,338.171 141.706,345.777 137.113 C 382.536 114.916,382.720 114.807,383.318 114.802 C 383.493 114.801,384.085 115.249,384.634 115.797 M189.083 119.295 C 188.987 119.793,188.905 119.480,188.901 118.600 C 188.896 117.720,188.975 117.313,189.075 117.695 C 189.175 118.078,189.179 118.798,189.083 119.295 M95.156 118.483 C 95.743 120.028,97.583 123.600,97.791 123.600 C 97.992 123.600,95.375 118.041,94.995 117.662 C 94.861 117.527,94.933 117.897,95.156 118.483 M106.252 121.600 C 106.550 124.028,107.657 128.477,107.901 128.232 C 108.010 128.124,107.813 126.902,107.465 125.518 C 107.117 124.133,106.652 122.280,106.432 121.400 L 106.031 119.800 106.252 121.600 M98.725 125.400 C 99.172 126.280,99.833 127.360,100.194 127.800 C 100.555 128.240,100.359 127.700,99.759 126.600 C 98.416 124.138,97.607 123.199,98.725 125.400 M360.973 127.241 C 359.721 127.731,359.390 127.641,360.219 127.035 C 360.644 126.725,361.161 126.576,361.369 126.704 C 361.577 126.833,361.399 127.074,360.973 127.241 M101.060 129.300 C 102.834 132.183,107.999 138.741,108.525 138.777 C 108.704 138.790,107.848 137.618,106.622 136.174 C 105.397 134.730,103.669 132.480,102.782 131.174 C 101.896 129.868,101.076 128.800,100.961 128.800 C 100.847 128.800,100.891 129.025,101.060 129.300 M109.029 132.000 C 109.176 132.550,109.464 133.270,109.667 133.600 C 109.925 134.017,109.957 133.895,109.771 133.200 C 109.624 132.650,109.336 131.930,109.133 131.600 C 108.875 131.183,108.843 131.305,109.029 132.000 M110.013 134.508 C 109.994 134.944,113.393 141.560,114.376 143.000 C 115.682 144.913,115.334 145.093,113.600 143.400 C 112.720 142.541,112.000 141.965,112.000 142.120 C 112.000 142.431,115.089 145.321,115.648 145.533 C 116.321 145.788,115.994 144.501,115.100 143.370 C 114.605 142.744,113.261 140.425,112.113 138.216 C 110.966 136.007,110.021 134.339,110.013 134.508 M154.300 163.876 C 153.915 163.976,153.285 163.976,152.900 163.876 C 152.515 163.775,152.830 163.693,153.600 163.693 C 154.370 163.693,154.685 163.775,154.300 163.876 M145.500 164.697 C 143.795 164.772,141.005 164.772,139.300 164.697 C 137.595 164.622,138.990 164.561,142.400 164.561 C 145.810 164.561,147.205 164.622,145.500 164.697 M296.000 166.292 C 295.670 166.417,295.310 166.649,295.200 166.806 C 295.090 166.963,294.550 167.220,294.000 167.376 C 293.082 167.637,293.099 167.595,294.200 166.860 C 294.860 166.419,295.670 166.060,296.000 166.061 C 296.533 166.063,296.533 166.089,296.000 166.292 M20.700 221.076 C 20.315 221.176,19.685 221.176,19.300 221.076 C 18.915 220.975,19.230 220.893,20.000 220.893 C 20.770 220.893,21.085 220.975,20.700 221.076 M17.194 224.100 C 17.190 224.984,17.077 225.226,16.843 224.856 C 16.528 224.359,16.683 222.800,17.047 222.800 C 17.131 222.800,17.197 223.385,17.194 224.100 M277.643 224.444 C 277.117 224.871,276.790 225.324,276.917 225.450 C 277.044 225.577,277.551 225.304,278.044 224.844 C 279.211 223.758,278.887 223.436,277.643 224.444 M30.200 225.200 C 30.704 225.417,30.778 225.544,30.400 225.544 C 30.070 225.544,29.440 225.389,29.000 225.200 C 28.496 224.983,28.422 224.856,28.800 224.856 C 29.130 224.856,29.760 225.011,30.200 225.200 M271.600 231.800 C 270.405 233.010,269.285 234.000,269.112 234.000 C 268.679 234.000,272.904 229.690,273.386 229.640 C 273.599 229.618,272.795 230.590,271.600 231.800 M51.832 235.501 C 51.583 235.751,49.600 235.120,49.600 234.791 C 49.600 234.614,50.133 234.671,50.785 234.917 C 51.436 235.163,51.908 235.426,51.832 235.501 M170.000 242.292 C 169.670 242.417,169.310 242.649,169.200 242.806 C 169.090 242.963,168.550 243.220,168.000 243.376 C 167.082 243.637,167.099 243.595,168.200 242.860 C 168.860 242.419,169.670 242.060,170.000 242.061 C 170.533 242.063,170.533 242.089,170.000 242.292 M72.684 245.449 C 72.441 245.692,70.800 245.094,70.800 244.762 C 70.800 244.572,71.251 244.623,71.802 244.874 C 72.353 245.125,72.750 245.384,72.684 245.449 M102.200 259.200 C 102.704 259.417,102.778 259.544,102.400 259.544 C 102.070 259.544,101.440 259.389,101.000 259.200 C 100.496 258.983,100.422 258.856,100.800 258.856 C 101.130 258.856,101.760 259.011,102.200 259.200 M124.767 269.453 C 125.110 269.756,122.968 269.529,122.200 269.181 C 121.642 268.929,121.885 268.893,123.000 269.062 C 123.880 269.196,124.675 269.372,124.767 269.453 " stroke="none" fill="#4b6b9b" fill-rule="evenodd"></path><path id="path2" d="M123.400 21.435 C 118.293 22.128,115.988 22.588,113.671 23.377 C 96.182 29.335,84.383 45.545,80.317 69.200 C 79.625 73.224,79.641 90.692,80.340 95.000 C 86.711 134.260,113.208 163.589,142.316 163.599 C 159.199 163.605,168.578 158.211,178.693 142.680 C 197.571 113.694,190.374 65.029,163.221 38.070 C 151.928 26.858,135.138 19.844,123.400 21.435 M132.874 29.653 C 133.244 29.844,133.966 30.000,134.477 30.000 C 135.732 30.000,141.244 31.988,144.200 33.506 C 155.213 39.164,166.292 51.045,172.262 63.600 C 174.745 68.823,175.571 70.828,176.792 74.600 C 177.504 76.800,178.234 78.960,178.413 79.400 C 179.047 80.956,180.327 87.511,181.226 93.800 C 181.721 97.262,181.608 110.128,181.078 110.656 C 180.616 111.117,180.013 109.994,180.006 108.659 C 179.994 106.398,176.876 98.029,174.470 93.800 C 152.448 55.094,105.829 67.464,105.876 112.000 C 105.888 123.284,109.602 136.024,114.967 143.178 C 115.978 144.527,116.301 145.600,115.696 145.600 C 115.528 145.600,113.773 144.025,111.796 142.100 C 100.719 131.318,94.322 119.873,89.605 102.400 C 80.156 67.399,96.971 31.125,123.600 29.067 C 126.166 28.868,132.077 29.242,132.874 29.653 M148.806 92.745 C 150.550 93.678,151.643 95.495,151.671 97.510 C 151.752 103.397,144.490 105.163,141.762 99.920 C 139.477 95.528,144.480 90.432,148.806 92.745 M382.000 115.335 C 380.946 115.893,378.870 117.141,351.400 133.727 C 341.940 139.439,330.240 146.496,325.400 149.409 C 320.560 152.323,309.670 158.893,301.200 164.011 C 292.730 169.129,284.810 173.895,283.600 174.603 C 282.390 175.311,274.920 179.810,267.000 184.601 C 259.080 189.392,250.440 194.608,247.800 196.193 C 245.160 197.778,235.170 203.808,225.600 209.593 C 216.030 215.379,204.240 222.494,199.400 225.406 C 194.560 228.317,183.670 234.888,175.200 240.008 C 166.730 245.128,158.810 249.889,157.600 250.587 C 156.390 251.286,153.780 252.859,151.800 254.085 C 149.820 255.310,147.570 256.669,146.800 257.104 C 146.030 257.539,141.170 260.467,136.000 263.609 C 130.830 266.751,126.032 269.662,125.338 270.078 L 124.077 270.834 121.138 269.461 C 119.522 268.705,116.040 267.059,113.400 265.802 C 110.760 264.545,107.340 262.926,105.800 262.203 C 103.126 260.948,99.566 259.267,91.200 255.308 C 89.110 254.319,84.610 252.201,81.200 250.600 C 74.063 247.250,69.644 245.158,61.856 241.444 C 58.808 239.990,56.263 238.800,56.202 238.800 C 56.140 238.800,53.235 237.431,49.745 235.758 C 46.255 234.086,42.230 232.178,40.800 231.518 C 36.167 229.383,33.513 228.131,27.065 225.038 C 20.706 221.989,19.370 221.590,18.480 222.480 C 17.183 223.777,17.609 224.528,29.898 242.600 C 35.393 250.681,56.732 281.941,59.661 286.200 C 61.950 289.530,64.597 293.397,70.611 302.200 C 73.841 306.928,81.530 318.136,86.600 325.507 C 90.495 331.169,97.273 341.059,100.235 345.400 C 101.887 347.820,105.647 353.310,108.593 357.600 C 111.538 361.890,115.531 367.718,117.466 370.551 C 121.413 376.329,122.253 377.117,123.673 376.369 C 124.183 376.100,134.680 365.849,147.000 353.589 C 159.320 341.329,169.918 330.829,170.552 330.255 C 171.748 329.172,222.434 279.074,256.600 245.205 C 267.380 234.518,282.048 220.021,289.197 212.988 C 296.345 205.954,311.915 190.545,323.797 178.744 C 335.678 166.943,345.940 156.800,346.600 156.205 C 350.002 153.138,384.798 118.352,385.182 117.634 C 386.042 116.027,383.779 114.392,382.000 115.335 M354.986 141.922 C 348.171 148.675,335.486 161.213,326.798 169.784 C 318.109 178.356,302.180 194.111,291.400 204.796 C 280.620 215.482,264.870 231.048,256.400 239.388 C 247.930 247.727,224.530 270.846,204.400 290.761 C 142.564 351.939,138.430 356.025,130.872 363.425 C 126.841 367.371,123.349 370.600,123.112 370.600 C 122.721 370.600,120.919 368.080,112.957 356.400 C 111.533 354.310,108.380 349.720,105.953 346.200 C 103.525 342.680,100.192 337.820,98.545 335.400 C 95.583 331.045,88.959 321.369,84.443 314.800 C 80.127 308.522,75.270 301.434,72.245 297.000 C 70.595 294.580,67.447 289.990,65.250 286.800 C 63.053 283.610,59.118 277.850,56.504 274.000 C 53.890 270.150,49.370 263.527,46.458 259.282 C 43.547 255.037,39.676 249.367,37.857 246.682 C 36.038 243.997,32.792 239.233,30.643 236.095 C 26.142 229.521,26.090 229.259,29.621 230.947 C 32.455 232.302,37.644 234.752,44.589 238.016 C 47.004 239.150,51.200 241.141,53.915 242.439 C 56.629 243.738,58.904 244.800,58.970 244.800 C 59.088 244.800,66.551 248.343,75.488 252.641 C 77.957 253.829,80.046 254.800,80.132 254.800 C 80.217 254.800,83.648 256.420,87.756 258.400 C 91.864 260.380,95.289 262.000,95.367 262.000 C 95.446 262.000,98.365 263.369,101.855 265.042 C 105.345 266.714,109.280 268.585,110.600 269.198 C 111.920 269.812,115.160 271.339,117.800 272.592 C 124.859 275.943,123.367 276.250,135.400 268.974 C 143.974 263.791,159.174 254.621,161.600 253.168 C 161.930 252.970,164.407 251.457,167.104 249.804 C 169.801 248.152,172.083 246.800,172.174 246.800 C 172.265 246.800,174.515 245.450,177.174 243.800 C 179.833 242.150,182.108 240.800,182.231 240.800 C 182.353 240.800,183.043 240.350,183.764 239.800 C 184.486 239.250,185.183 238.800,185.314 238.800 C 185.445 238.800,187.288 237.717,189.409 236.394 C 191.531 235.071,194.017 233.563,194.934 233.043 C 195.850 232.522,203.530 227.911,212.000 222.796 C 220.470 217.680,229.110 212.468,231.200 211.213 C 233.290 209.959,243.730 203.658,254.400 197.211 C 265.070 190.765,277.348 183.361,281.685 180.757 C 286.022 178.154,291.472 174.848,293.796 173.412 C 296.120 171.975,298.093 170.800,298.180 170.800 C 298.268 170.800,300.515 169.450,303.174 167.800 C 305.833 166.150,308.108 164.800,308.231 164.800 C 308.353 164.800,309.043 164.350,309.764 163.800 C 310.486 163.250,311.183 162.800,311.314 162.800 C 311.445 162.800,313.288 161.717,315.409 160.394 C 317.531 159.071,320.017 157.562,320.934 157.042 C 322.603 156.093,358.361 134.546,363.995 131.093 C 365.643 130.083,367.078 129.344,367.184 129.451 C 367.290 129.557,361.801 135.169,354.986 141.922 " stroke="none" fill="#080b07" fill-rule="evenodd"></path><path id="path3" d="M118.086 30.599 C 80.793 40.236,77.025 108.101,111.918 141.700 C 115.294 144.950,115.603 145.046,113.849 142.300 C 101.953 123.670,102.494 97.177,115.076 82.210 C 134.504 59.100,168.059 70.403,179.268 103.833 L 181.000 109.000 181.125 104.400 C 182.283 61.625,148.966 22.619,118.086 30.599 M145.326 92.736 C 142.801 93.499,141.191 96.547,142.006 99.019 C 143.847 104.596,151.200 103.327,151.200 97.432 C 151.200 94.353,148.122 91.891,145.326 92.736 " stroke="none" fill="#fafafa" fill-rule="evenodd"></path><path id="path4" d="M44.505 0.287 C 45.114 0.379,46.014 0.377,46.505 0.282 C 46.997 0.187,46.500 0.111,45.400 0.114 C 44.300 0.117,43.897 0.195,44.505 0.287 M55.200 0.277 C 62.611 0.563,69.510 0.574,69.339 0.300 C 69.237 0.135,65.338 0.036,60.676 0.080 C 56.014 0.125,53.550 0.213,55.200 0.277 M330.900 0.299 C 334.145 0.366,339.455 0.366,342.700 0.299 C 345.945 0.232,343.290 0.177,336.800 0.177 C 330.310 0.177,327.655 0.232,330.900 0.299 M353.900 0.289 C 354.615 0.378,355.785 0.378,356.500 0.289 C 357.215 0.201,356.630 0.128,355.200 0.128 C 353.770 0.128,353.185 0.201,353.900 0.289 M387.805 5.592 C 387.643 5.855,387.690 6.250,387.910 6.470 C 388.431 6.991,388.845 6.321,388.424 5.638 C 388.178 5.240,388.029 5.229,387.805 5.592 M124.500 20.294 C 125.545 20.376,127.255 20.376,128.300 20.294 C 129.345 20.212,128.490 20.144,126.400 20.144 C 124.310 20.144,123.455 20.212,124.500 20.294 M117.705 21.087 C 118.314 21.179,119.214 21.177,119.705 21.082 C 120.197 20.987,119.700 20.911,118.600 20.914 C 117.500 20.917,117.097 20.995,117.705 21.087 M133.505 21.083 C 134.002 21.179,134.722 21.175,135.105 21.075 C 135.487 20.975,135.080 20.896,134.200 20.901 C 133.320 20.905,133.007 20.987,133.505 21.083 M125.905 29.483 C 126.402 29.579,127.122 29.575,127.505 29.475 C 127.887 29.375,127.480 29.296,126.600 29.301 C 125.720 29.305,125.407 29.387,125.905 29.483 M0.101 45.000 C 0.105 45.880,0.187 46.193,0.283 45.695 C 0.379 45.198,0.375 44.478,0.275 44.095 C 0.175 43.713,0.096 44.120,0.101 45.000 M399.709 46.000 C 399.709 46.990,399.787 47.395,399.882 46.900 C 399.978 46.405,399.978 45.595,399.882 45.100 C 399.787 44.605,399.709 45.010,399.709 46.000 M0.150 54.600 C 0.151 57.020,0.216 57.958,0.296 56.685 C 0.376 55.412,0.375 53.432,0.294 52.285 C 0.214 51.138,0.149 52.180,0.150 54.600 M399.767 61.800 C 399.767 65.980,399.826 67.636,399.898 65.479 C 399.971 63.323,399.970 59.903,399.898 57.879 C 399.825 55.856,399.766 57.620,399.767 61.800 M78.934 72.400 C 78.934 74.050,79.005 74.725,79.091 73.900 C 79.178 73.075,79.178 71.725,79.091 70.900 C 79.005 70.075,78.934 70.750,78.934 72.400 M136.500 70.276 C 136.885 70.376,137.515 70.376,137.900 70.276 C 138.285 70.175,137.970 70.093,137.200 70.093 C 136.430 70.093,136.115 70.175,136.500 70.276 M188.901 87.000 C 188.905 87.880,188.987 88.193,189.083 87.695 C 189.179 87.198,189.175 86.478,189.075 86.095 C 188.975 85.713,188.896 86.120,188.901 87.000 M78.934 91.600 C 78.934 93.250,79.005 93.925,79.091 93.100 C 79.178 92.275,79.178 90.925,79.091 90.100 C 79.005 89.275,78.934 89.950,78.934 91.600 M189.734 94.000 C 189.734 95.650,189.805 96.325,189.891 95.500 C 189.978 94.675,189.978 93.325,189.891 92.500 C 189.805 91.675,189.734 92.350,189.734 94.000 M180.893 96.000 C 180.893 96.770,180.975 97.085,181.076 96.700 C 181.176 96.315,181.176 95.685,181.076 95.300 C 180.975 94.915,180.893 95.230,180.893 96.000 M190.553 103.000 C 190.553 105.640,190.618 106.668,190.697 105.284 C 190.775 103.901,190.774 101.741,190.695 100.484 C 190.616 99.228,190.552 100.360,190.553 103.000 M105.293 107.600 C 105.293 108.370,105.375 108.685,105.476 108.300 C 105.576 107.915,105.576 107.285,105.476 106.900 C 105.375 106.515,105.293 106.830,105.293 107.600 M189.728 112.400 C 189.728 113.830,189.801 114.415,189.889 113.700 C 189.978 112.985,189.978 111.815,189.889 111.100 C 189.801 110.385,189.728 110.970,189.728 112.400 M383.794 114.294 C 384.231 114.404,384.906 114.861,385.294 115.309 C 385.682 115.756,386.000 115.943,386.000 115.723 C 386.000 115.058,384.587 113.997,383.769 114.046 C 383.036 114.091,383.038 114.102,383.794 114.294 M105.293 116.000 C 105.293 116.770,105.375 117.085,105.476 116.700 C 105.576 116.315,105.576 115.685,105.476 115.300 C 105.375 114.915,105.293 115.230,105.293 116.000 M188.901 118.600 C 188.905 119.480,188.987 119.793,189.083 119.295 C 189.179 118.798,189.175 118.078,189.075 117.695 C 188.975 117.313,188.896 117.720,188.901 118.600 M385.382 118.540 C 384.471 119.542,384.346 120.146,385.223 119.311 C 385.736 118.822,386.076 118.345,385.978 118.251 C 385.880 118.158,385.612 118.288,385.382 118.540 M360.219 127.035 C 359.390 127.641,359.721 127.731,360.973 127.241 C 361.399 127.074,361.577 126.833,361.369 126.704 C 361.161 126.576,360.644 126.725,360.219 127.035 M152.900 163.876 C 153.285 163.976,153.915 163.976,154.300 163.876 C 154.685 163.775,154.370 163.693,153.600 163.693 C 152.830 163.693,152.515 163.775,152.900 163.876 M139.300 164.697 C 141.005 164.772,143.795 164.772,145.500 164.697 C 147.205 164.622,145.810 164.561,142.400 164.561 C 138.990 164.561,137.595 164.622,139.300 164.697 M294.200 166.860 C 293.099 167.595,293.082 167.637,294.000 167.376 C 294.550 167.220,295.090 166.963,295.200 166.806 C 295.310 166.649,295.670 166.417,296.000 166.292 C 296.533 166.089,296.533 166.063,296.000 166.061 C 295.670 166.060,294.860 166.419,294.200 166.860 M19.300 221.076 C 19.685 221.176,20.315 221.176,20.700 221.076 C 21.085 220.975,20.770 220.893,20.000 220.893 C 19.230 220.893,18.915 220.975,19.300 221.076 M16.696 223.556 C 16.587 223.971,16.653 224.556,16.843 224.856 C 17.077 225.226,17.190 224.984,17.194 224.100 C 17.201 222.645,16.993 222.418,16.696 223.556 M277.884 224.875 C 277.270 225.494,276.923 226.000,277.114 226.000 C 277.530 226.000,279.409 224.058,279.168 223.877 C 279.076 223.807,278.498 224.257,277.884 224.875 M29.000 225.200 C 29.440 225.389,30.070 225.544,30.400 225.544 C 30.778 225.544,30.704 225.417,30.200 225.200 C 29.760 225.011,29.130 224.856,28.800 224.856 C 28.422 224.856,28.496 224.983,29.000 225.200 M270.898 231.840 C 269.742 233.028,268.938 234.000,269.112 234.000 C 269.285 234.000,270.405 233.010,271.600 231.800 C 272.795 230.590,273.599 229.618,273.386 229.640 C 273.174 229.662,272.054 230.652,270.898 231.840 M41.600 231.200 C 42.968 231.638,44.019 231.638,43.000 231.200 C 42.560 231.011,41.840 230.862,41.400 230.868 C 40.757 230.877,40.796 230.943,41.600 231.200 M49.600 234.791 C 49.600 235.120,51.583 235.751,51.832 235.501 C 51.908 235.426,51.436 235.163,50.785 234.917 C 50.133 234.671,49.600 234.614,49.600 234.791 M168.200 242.860 C 167.099 243.595,167.082 243.637,168.000 243.376 C 168.550 243.220,169.090 242.963,169.200 242.806 C 169.310 242.649,169.670 242.417,170.000 242.292 C 170.533 242.089,170.533 242.063,170.000 242.061 C 169.670 242.060,168.860 242.419,168.200 242.860 M70.800 244.762 C 70.800 245.094,72.441 245.692,72.684 245.449 C 72.750 245.384,72.353 245.125,71.802 244.874 C 71.251 244.623,70.800 244.572,70.800 244.762 M101.000 259.200 C 101.440 259.389,102.070 259.544,102.400 259.544 C 102.778 259.544,102.704 259.417,102.200 259.200 C 101.760 259.011,101.130 258.856,100.800 258.856 C 100.422 258.856,100.496 258.983,101.000 259.200 M113.600 265.200 C 114.968 265.638,116.019 265.638,115.000 265.200 C 114.560 265.011,113.840 264.862,113.400 264.868 C 112.757 264.877,112.796 264.943,113.600 265.200 M122.200 269.181 C 122.968 269.529,125.110 269.756,124.767 269.453 C 124.675 269.372,123.880 269.196,123.000 269.062 C 121.885 268.893,121.642 268.929,122.200 269.181 M399.769 333.200 C 399.769 337.710,399.827 339.555,399.898 337.300 C 399.970 335.045,399.970 331.355,399.898 329.100 C 399.827 326.845,399.769 328.690,399.769 333.200 M0.165 343.200 C 0.165 347.050,0.225 348.625,0.298 346.700 C 0.371 344.775,0.371 341.625,0.298 339.700 C 0.225 337.775,0.165 339.350,0.165 343.200 M0.128 355.200 C 0.128 356.630,0.201 357.215,0.289 356.500 C 0.378 355.785,0.378 354.615,0.289 353.900 C 0.201 353.185,0.128 353.770,0.128 355.200 M399.701 354.200 C 399.705 355.080,399.787 355.393,399.883 354.895 C 399.979 354.398,399.975 353.678,399.875 353.295 C 399.775 352.913,399.696 353.320,399.701 354.200 M1.400 377.200 C 1.097 377.691,1.494 378.400,2.073 378.400 C 2.363 378.400,2.357 378.230,2.052 377.863 C 1.807 377.568,1.725 377.208,1.870 377.063 C 2.015 376.918,2.024 376.800,1.890 376.800 C 1.757 376.800,1.536 376.980,1.400 377.200 M395.053 384.991 C 394.333 385.536,394.336 385.555,395.142 385.494 C 395.603 385.460,396.068 385.199,396.177 384.916 C 396.433 384.249,395.994 384.279,395.053 384.991 M45.491 399.889 C 46.201 399.977,47.461 399.979,48.291 399.892 C 49.121 399.805,48.540 399.733,47.000 399.731 C 45.460 399.729,44.781 399.800,45.491 399.889 M58.300 399.898 C 60.335 399.971,63.665 399.971,65.700 399.898 C 67.735 399.825,66.070 399.766,62.000 399.766 C 57.930 399.766,56.265 399.825,58.300 399.898 M329.100 399.898 C 331.355 399.970,335.045 399.970,337.300 399.898 C 339.555 399.827,337.710 399.769,333.200 399.769 C 328.690 399.769,326.845 399.827,329.100 399.898 M351.100 399.893 C 352.035 399.977,353.565 399.977,354.500 399.893 C 355.435 399.809,354.670 399.740,352.800 399.740 C 350.930 399.740,350.165 399.809,351.100 399.893 " stroke="none" fill="#4c6ca4" fill-rule="evenodd"></path></g></svg>